<svg width="40" height="40" viewBox="0 0 40 40" fill="none" xmlns="http://www.w3.org/2000/svg">
<path d="M32.7273 24H40V0H32.7273M25.4545 0H9.09091C7.58182 0 6.29091 1 5.74545 2.44L0.254545 16.54C0.0909091 17 0 17.48 0 18V22C0 23.0609 0.383116 24.0783 1.06507 24.8284C1.74702 25.5786 2.67194 26 3.63636 26H15.1091L13.3818 35.14C13.3455 35.34 13.3273 35.54 13.3273 35.76C13.3273 36.6 13.6364 37.34 14.1273 37.88L16.0545 40L28.0182 26.82C28.6909 26.1 29.0909 25.1 29.0909 24V4C29.0909 2.93913 28.7078 1.92172 28.0258 1.17157C27.3439 0.421427 26.419 0 25.4545 0Z" fill="#ED1C24"/>
</svg>
