<svg width="191" height="39" viewBox="0 0 191 39" fill="none" xmlns="http://www.w3.org/2000/svg">
<rect width="182" height="31" rx="15" fill="white"/>
<rect x="91" width="91" height="31" rx="15" fill="#ED1C24"/>
<path d="M9.33321 7.44H13.7972V13.704H22.6052V7.44H27.0692V24H22.6052V17.328H13.7972V24H9.33321V7.44ZM36.0178 7.44H42.1618L49.2898 24H44.6578L43.0738 20.304H34.6018L33.0418 24H28.8418L36.0178 7.44ZM38.8498 10.368L35.9938 17.064H41.7058L38.8498 10.368ZM51.0988 7.44H62.3548C65.6668 7.44 67.4908 8.784 67.4908 11.472C67.4908 13.08 66.8188 14.544 64.8028 15.216C67.0828 15.792 67.9948 17.232 67.9948 19.152C67.9948 22.296 66.1708 24 62.4508 24H51.0988V7.44ZM63.4588 19.248V18.624C63.4588 17.544 62.7148 16.896 61.2508 16.896H55.5148V21.072H61.2508C62.6668 21.072 63.4588 20.472 63.4588 19.248ZM62.9548 12.408V11.952C62.9548 10.92 62.2828 10.368 60.9628 10.368H55.5148V14.112H60.9628C62.2588 14.112 62.9548 13.536 62.9548 12.408ZM70.6223 7.44H81.8543C85.7183 7.44 87.9023 9.312 87.9023 12.768C87.9023 15.336 86.7503 17.016 84.6623 17.784L88.3823 24H83.4383L80.0063 18.24H75.0863V24H70.6223V7.44ZM83.3903 13.056V12.576C83.3903 11.448 82.7903 10.728 81.1823 10.728H75.0863V14.904H81.1823C82.7663 14.904 83.3903 14.184 83.3903 13.056Z" fill="#ED1C24"/>
<path d="M95.707 15.744C95.707 9.312 99.283 7.104 105.331 7.104C110.875 7.104 114.211 8.688 114.667 13.176H110.155C109.771 11.064 108.139 10.56 105.331 10.56C102.331 10.56 100.219 11.328 100.219 14.784V16.68C100.219 20.04 102.259 20.88 105.355 20.88C108.019 20.88 109.699 20.4 110.179 18.432H114.691C114.163 22.704 110.851 24.336 105.331 24.336C99.283 24.336 95.707 22.248 95.707 15.744ZM132.553 16.56V14.808C132.553 11.64 130.609 10.56 126.769 10.56C122.929 10.56 120.961 11.64 120.961 14.808V16.56C120.961 19.896 122.929 20.88 126.769 20.88C130.609 20.88 132.553 19.92 132.553 16.56ZM116.449 15.624C116.449 9.192 120.121 7.104 126.769 7.104C133.417 7.104 137.089 9.192 137.089 15.624C137.089 22.224 133.417 24.336 126.769 24.336C120.121 24.336 116.449 22.224 116.449 15.624ZM139.786 7.44H151.018C154.882 7.44 157.066 9.312 157.066 12.768C157.066 15.336 155.914 17.016 153.826 17.784L157.546 24H152.602L149.17 18.24H144.25V24H139.786V7.44ZM152.554 13.056V12.576C152.554 11.448 151.954 10.728 150.346 10.728H144.25V14.904H150.346C151.93 14.904 152.554 14.184 152.554 13.056ZM160.06 7.44H175.156V10.872H164.524V13.896H172.612V17.184H164.524V20.568H175.228V24H160.06V7.44Z" fill="white"/>
</svg>
