<svg width="144" height="67" viewBox="0 0 144 67" fill="none" xmlns="http://www.w3.org/2000/svg">
<path d="M17 49C17 40.7157 23.7157 34 32 34H129C137.284 34 144 40.7157 144 49V52C144 60.2843 137.284 67 129 67H32C23.7157 67 17 60.2843 17 52V49Z" fill="#ED1C24"/>
<path d="M25.312 48.992C25.312 40.416 30.08 37.472 38.144 37.472C45.536 37.472 49.984 39.584 50.592 45.568H44.576C44.064 42.752 41.888 42.08 38.144 42.08C34.144 42.08 31.328 43.104 31.328 47.712V50.24C31.328 54.72 34.048 55.84 38.176 55.84C41.728 55.84 43.968 55.2 44.608 52.576H50.624C49.92 58.272 45.504 60.448 38.144 60.448C30.08 60.448 25.312 57.664 25.312 48.992ZM74.4403 50.08V47.744C74.4403 43.52 71.8483 42.08 66.7283 42.08C61.6083 42.08 58.9843 43.52 58.9843 47.744V50.08C58.9843 54.528 61.6083 55.84 66.7283 55.84C71.8483 55.84 74.4403 54.56 74.4403 50.08ZM52.9683 48.832C52.9683 40.256 57.8643 37.472 66.7283 37.472C75.5923 37.472 80.4883 40.256 80.4883 48.832C80.4883 57.632 75.5923 60.448 66.7283 60.448C57.8643 60.448 52.9683 57.632 52.9683 48.832ZM84.0845 37.92H99.0605C104.213 37.92 107.125 40.416 107.125 45.024C107.125 48.448 105.589 50.688 102.805 51.712L107.765 60H101.173L96.5965 52.32H90.0365V60H84.0845V37.92ZM101.109 45.408V44.768C101.109 43.264 100.309 42.304 98.1645 42.304H90.0365V47.872H98.1645C100.277 47.872 101.109 46.912 101.109 45.408ZM111.116 37.92H131.244V42.496H117.068V46.528H127.852V50.912H117.068V55.424H131.34V60H111.116V37.92Z" fill="white"/>
<path d="M2.272 9.92H8.224V18.272H19.968V9.92H25.92V32H19.968V23.104H8.224V32H2.272V9.92ZM37.8515 9.92H46.0435L55.5475 32H49.3715L47.2595 27.072H35.9635L33.8835 32H28.2835L37.8515 9.92ZM41.6275 13.824L37.8195 22.752H45.4355L41.6275 13.824ZM57.9595 9.92H72.9675C77.3835 9.92 79.8155 11.712 79.8155 15.296C79.8155 17.44 78.9195 19.392 76.2315 20.288C79.2715 21.056 80.4875 22.976 80.4875 25.536C80.4875 29.728 78.0555 32 73.0955 32H57.9595V9.92ZM74.4395 25.664V24.832C74.4395 23.392 73.4475 22.528 71.4955 22.528H63.8475V28.096H71.4955C73.3835 28.096 74.4395 27.296 74.4395 25.664ZM73.7675 16.544V15.936C73.7675 14.56 72.8715 13.824 71.1115 13.824H63.8475V18.816H71.1115C72.8395 18.816 73.7675 18.048 73.7675 16.544ZM83.9908 9.92H98.9668C104.119 9.92 107.031 12.416 107.031 17.024C107.031 20.448 105.495 22.688 102.711 23.712L107.671 32H101.079L96.5028 24.32H89.9427V32H83.9908V9.92ZM101.015 17.408V16.768C101.015 15.264 100.215 14.304 98.0708 14.304H89.9427V19.872H98.0708C100.183 19.872 101.015 18.912 101.015 17.408Z" fill="#ED1C24"/>
</svg>
