<svg width="90" height="24" viewBox="0 0 90 24" fill="none" xmlns="http://www.w3.org/2000/svg">
<rect width="90" height="24" rx="12" fill="white"/>
<rect x="46" width="44" height="24" rx="12" fill="#ED1C24"/>
<path d="M4.852 7.72H7.084V10.852H11.488V7.72H13.72V16H11.488V12.664H7.084V16H4.852V7.72ZM18.1943 7.72H21.2663L24.8303 16H22.5143L21.7223 14.152H17.4863L16.7063 16H14.6063L18.1943 7.72ZM19.6103 9.184L18.1823 12.532H21.0383L19.6103 9.184ZM25.7348 7.72H31.3628C33.0188 7.72 33.9308 8.392 33.9308 9.736C33.9308 10.54 33.5948 11.272 32.5868 11.608C33.7268 11.896 34.1828 12.616 34.1828 13.576C34.1828 15.148 33.2708 16 31.4108 16H25.7348V7.72ZM31.9148 13.624V13.312C31.9148 12.772 31.5428 12.448 30.8108 12.448H27.9428V14.536H30.8108C31.5188 14.536 31.9148 14.236 31.9148 13.624ZM31.6628 10.204V9.976C31.6628 9.46 31.3268 9.184 30.6668 9.184H27.9428V11.056H30.6668C31.3148 11.056 31.6628 10.768 31.6628 10.204ZM35.4965 7.72H41.1125C43.0445 7.72 44.1365 8.656 44.1365 10.384C44.1365 11.668 43.5605 12.508 42.5165 12.892L44.3765 16H41.9045L40.1885 13.12H37.7285V16H35.4965V7.72ZM41.8805 10.528V10.288C41.8805 9.724 41.5805 9.364 40.7765 9.364H37.7285V11.452H40.7765C41.5685 11.452 41.8805 11.092 41.8805 10.528Z" fill="#ED1C24"/>
<path d="M48.0389 11.872C48.0389 8.656 49.8269 7.552 52.8509 7.552C55.6229 7.552 57.2909 8.344 57.5189 10.588H55.2629C55.0709 9.532 54.2549 9.28 52.8509 9.28C51.3509 9.28 50.2949 9.664 50.2949 11.392V12.34C50.2949 14.02 51.3149 14.44 52.8629 14.44C54.1949 14.44 55.0349 14.2 55.2749 13.216H57.5309C57.2669 15.352 55.6109 16.168 52.8509 16.168C49.8269 16.168 48.0389 15.124 48.0389 11.872ZM66.462 12.28V11.404C66.462 9.82 65.49 9.28 63.57 9.28C61.65 9.28 60.666 9.82 60.666 11.404V12.28C60.666 13.948 61.65 14.44 63.57 14.44C65.49 14.44 66.462 13.96 66.462 12.28ZM58.41 11.812C58.41 8.596 60.246 7.552 63.57 7.552C66.894 7.552 68.73 8.596 68.73 11.812C68.73 15.112 66.894 16.168 63.57 16.168C60.246 16.168 58.41 15.112 58.41 11.812ZM70.0786 7.72H75.6946C77.6266 7.72 78.7186 8.656 78.7186 10.384C78.7186 11.668 78.1426 12.508 77.0986 12.892L78.9586 16H76.4866L74.7706 13.12H72.3106V16H70.0786V7.72ZM76.4626 10.528V10.288C76.4626 9.724 76.1626 9.364 75.3586 9.364H72.3106V11.452H75.3586C76.1506 11.452 76.4626 11.092 76.4626 10.528ZM80.2153 7.72H87.7633V9.436H82.4473V10.948H86.4913V12.592H82.4473V14.284H87.7993V16H80.2153V7.72Z" fill="white"/>
</svg>
