<svg width="80" height="80" viewBox="0 0 80 80" fill="none" xmlns="http://www.w3.org/2000/svg">
<path d="M53.2065 9.27567C51.2124 7.94366 48.8345 10.3217 50.1627 12.316L52.533 15.8718C53.4955 17.3131 54.0092 19.0075 54.0092 20.7407C54.0092 22.474 53.4955 24.1683 52.533 25.6097L50.1627 29.1655C48.8345 31.1598 51.2162 33.5378 53.2103 32.2058L56.762 29.8353C58.2033 28.8727 59.8975 28.3589 61.6306 28.3589C63.3637 28.3589 65.0579 28.8727 66.4992 29.8353L70.0547 32.2058C72.0488 33.5378 74.4266 31.1598 73.0947 29.1655L70.7244 25.6097C69.7619 24.1683 69.2482 22.474 69.2482 20.7407C69.2482 19.0075 69.7619 17.3131 70.7244 15.8718L73.0947 12.316C74.4266 10.3217 72.0488 7.94366 70.0509 9.27567L66.4992 11.6462C65.0579 12.6088 63.3637 13.1225 61.6306 13.1225C59.8975 13.1225 58.2033 12.6088 56.762 11.6462L53.2065 9.27567Z" fill="#ED1C24"/>
<path d="M79.8141 54.7779C80.7208 52.6179 78.1297 50.7779 75.9563 51.7379C71.6115 53.6428 66.918 54.6235 62.1739 54.6179C43.5738 54.6179 28.4981 39.8446 28.4981 21.618C28.4962 15.4647 30.2442 9.43769 33.5381 4.24025C34.8003 2.24914 33.2848 -0.506402 30.9736 0.0802624C13.1557 4.62691 0 20.5024 0 39.3868C0 61.8178 18.5557 80 41.4493 80C58.7828 80 73.6274 69.5778 79.8141 54.7779Z" fill="#ED1C24"/>
</svg>
