<svg width="80" height="80" viewBox="0 0 80 80" fill="none" xmlns="http://www.w3.org/2000/svg">
<ellipse cx="39.9845" cy="40" rx="19.6053" ry="19.6078" fill="#ED1C24"/>
<path d="M42.3372 70.5882C42.3372 75.7862 46.1531 80 43.1214 80C40.0896 80 37.6319 75.7862 37.6319 70.5882C37.6319 65.3903 40.0896 61.1765 43.1214 61.1765C46.1531 61.1765 42.3372 65.3903 42.3372 70.5882Z" fill="#ED1C24"/>
<path d="M42.3372 70.5882C42.3372 75.7862 46.1531 80 43.1214 80C40.0896 80 37.6319 75.7862 37.6319 70.5882C37.6319 65.3903 40.0896 61.1765 43.1214 61.1765C46.1531 61.1765 42.3372 65.3903 42.3372 70.5882Z" fill="#ED1C24"/>
<path d="M70.5834 39.6312C75.7807 39.6474 80.0058 35.844 79.9964 38.8762C79.9869 41.9083 75.766 44.3532 70.5688 44.3371C65.3715 44.3209 61.1659 41.8497 61.1753 38.8176C61.1848 35.7855 65.3861 39.615 70.5834 39.6312Z" fill="#ED1C24"/>
<path d="M70.5834 39.6312C75.7807 39.6474 80.0058 35.844 79.9964 38.8762C79.9869 41.9083 75.766 44.3532 70.5688 44.3371C65.3715 44.3209 61.1659 41.8497 61.1753 38.8176C61.1848 35.7855 65.3861 39.615 70.5834 39.6312Z" fill="#ED1C24"/>
<path d="M24.4541 66.9744C21.8555 71.4759 23.0536 77.0334 20.428 75.5173C17.8024 74.0013 17.7806 69.123 20.3792 64.6214C22.9779 60.1198 27.2129 57.6996 29.8385 59.2157C32.4641 60.7318 27.0528 62.4728 24.4541 66.9744Z" fill="#ED1C24"/>
<path d="M24.4541 66.9744C21.8555 71.4759 23.0536 77.0334 20.428 75.5173C17.8024 74.0013 17.7806 69.123 20.3792 64.6214C22.9779 60.1198 27.2129 57.6996 29.8385 59.2157C32.4641 60.7318 27.0528 62.4728 24.4541 66.9744Z" fill="#ED1C24"/>
<path d="M12.0605 57.4088C7.55953 60.0077 5.81874 65.4198 4.30286 62.7939C2.78698 60.1679 5.20689 55.9323 9.70789 53.3333C14.2089 50.7344 19.0865 50.7562 20.6024 53.3821C22.1183 56.008 16.5615 54.8098 12.0605 57.4088Z" fill="#ED1C24"/>
<path d="M12.0605 57.4088C7.55953 60.0077 5.81874 65.4198 4.30286 62.7939C2.78698 60.1679 5.20689 55.9323 9.70789 53.3333C14.2089 50.7344 19.0865 50.7562 20.6024 53.3821C22.1183 56.008 16.5615 54.8098 12.0605 57.4088Z" fill="#ED1C24"/>
<path d="M12.2536 24.4676C7.75263 21.8686 2.19586 23.0668 3.71174 20.4409C5.22762 17.815 10.1053 17.7932 14.6063 20.3922C19.1073 22.9911 21.5272 27.2268 20.0113 29.8527C18.4954 32.4786 16.7546 27.0666 12.2536 24.4676Z" fill="#ED1C24"/>
<path d="M12.2536 24.4676C7.75263 21.8686 2.19586 23.0668 3.71174 20.4409C5.22762 17.815 10.1053 17.7932 14.6063 20.3922C19.1073 22.9911 21.5272 27.2268 20.0113 29.8527C18.4954 32.4786 16.7546 27.0666 12.2536 24.4676Z" fill="#ED1C24"/>
<path d="M23.6404 10.5038C21.0417 6.00219 15.6304 4.26117 18.256 2.7451C20.8815 1.22902 25.1166 3.64925 27.7153 8.15083C30.3139 12.6524 30.2921 17.5307 27.6665 19.0468C25.0409 20.5628 26.239 15.0053 23.6404 10.5038Z" fill="#ED1C24"/>
<path d="M23.6404 10.5038C21.0417 6.00219 15.6304 4.26117 18.256 2.7451C20.8815 1.22902 25.1166 3.64925 27.7153 8.15083C30.3139 12.6524 30.2921 17.5307 27.6665 19.0468C25.0409 20.5628 26.239 15.0053 23.6404 10.5038Z" fill="#ED1C24"/>
<path d="M56.5773 12.2655C59.176 7.76393 57.9778 2.20644 60.6034 3.72252C63.229 5.2386 63.2508 10.1169 60.6522 14.6184C58.0535 19.12 53.8185 21.5402 51.1929 20.0242C48.5673 18.5081 53.9786 16.7671 56.5773 12.2655Z" fill="#ED1C24"/>
<path d="M56.5773 12.2655C59.176 7.76393 57.9778 2.20644 60.6034 3.72252C63.229 5.2386 63.2508 10.1169 60.6522 14.6184C58.0535 19.12 53.8185 21.5402 51.1929 20.0242C48.5673 18.5081 53.9786 16.7671 56.5773 12.2655Z" fill="#ED1C24"/>
<path d="M68.7169 25.2224C73.2179 22.6234 74.9587 17.2113 76.4746 19.8372C77.9905 22.4632 75.5705 26.6988 71.0695 29.2978C66.5685 31.8968 61.6909 31.8749 60.175 29.249C58.6591 26.6231 64.2159 27.8214 68.7169 25.2224Z" fill="#ED1C24"/>
<path d="M68.7169 25.2224C73.2179 22.6234 74.9587 17.2113 76.4746 19.8372C77.9905 22.4632 75.5705 26.6988 71.0695 29.2978C66.5685 31.8968 61.6909 31.8749 60.175 29.249C58.6591 26.6231 64.2159 27.8214 68.7169 25.2224Z" fill="#ED1C24"/>
<path d="M68.5238 55.0263C73.0248 57.6253 78.5816 56.427 77.0657 59.0529C75.5498 61.6789 70.6722 61.7007 66.1712 59.1017C61.6702 56.5027 59.2503 52.2671 60.7662 49.6412C62.282 47.0153 64.0228 52.4273 68.5238 55.0263Z" fill="#ED1C24"/>
<path d="M68.5238 55.0263C73.0248 57.6253 78.5816 56.427 77.0657 59.0529C75.5498 61.6789 70.6722 61.7007 66.1712 59.1017C61.6702 56.5027 59.2503 52.2671 60.7662 49.6412C62.282 47.0153 64.0228 52.4273 68.5238 55.0263Z" fill="#ED1C24"/>
<path d="M57.391 65.5988C59.9897 70.1004 65.401 71.8414 62.7755 73.3575C60.1499 74.8736 55.9148 72.4534 53.3161 67.9518C50.7175 63.4502 50.7393 58.5719 53.3649 57.0558C55.9905 55.5398 54.7924 61.0973 57.391 65.5988Z" fill="#ED1C24"/>
<path d="M57.391 65.5988C59.9897 70.1004 65.401 71.8414 62.7755 73.3575C60.1499 74.8736 55.9148 72.4534 53.3161 67.9518C50.7175 63.4502 50.7393 58.5719 53.3649 57.0558C55.9905 55.5398 54.7924 61.0973 57.391 65.5988Z" fill="#ED1C24"/>
<path d="M9.41056 42.3822C4.21325 42.3822 5.24521e-06 46.1987 5.24521e-06 43.1665C5.24521e-06 40.1344 4.21325 37.6763 9.41056 37.6763C14.6079 37.6763 18.8211 40.1344 18.8211 43.1665C18.8211 46.1987 14.6079 42.3822 9.41056 42.3822Z" fill="#ED1C24"/>
<path d="M9.41056 42.3822C4.21325 42.3822 5.24521e-06 46.1987 5.24521e-06 43.1665C5.24521e-06 40.1344 4.21325 37.6763 9.41056 37.6763C14.6079 37.6763 18.8211 40.1344 18.8211 43.1665C18.8211 46.1987 14.6079 42.3822 9.41056 42.3822Z" fill="#ED1C24"/>
<path d="M39.6317 9.42764C39.6317 4.22966 35.8157 0.0158707 38.8474 0.0158707C41.8792 0.0158707 44.3369 4.22966 44.3369 9.42764C44.3369 14.6256 41.8792 18.8394 38.8474 18.8394C35.8157 18.8394 39.6317 14.6256 39.6317 9.42764Z" fill="#ED1C24"/>
<path d="M39.6317 9.42764C39.6317 4.22966 35.8157 0.0158707 38.8474 0.0158707C41.8792 0.0158707 44.3369 4.22966 44.3369 9.42764C44.3369 14.6256 41.8792 18.8394 38.8474 18.8394C35.8157 18.8394 39.6317 14.6256 39.6317 9.42764Z" fill="#ED1C24"/>
</svg>
