<svg width="187" height="67" viewBox="0 0 187 67" fill="none" xmlns="http://www.w3.org/2000/svg">
<rect width="114" height="67" rx="15" fill="white"/>
<path d="M20 49C20 40.7157 26.7157 34 35 34H132C140.284 34 147 40.7157 147 49V52C147 60.2843 140.284 67 132 67H35C26.7157 67 20 60.2843 20 52V49Z" fill="#ED1C24"/>
<path d="M28.312 48.992C28.312 40.416 33.08 37.472 41.144 37.472C48.536 37.472 52.984 39.584 53.592 45.568H47.576C47.064 42.752 44.888 42.08 41.144 42.08C37.144 42.08 34.328 43.104 34.328 47.712V50.24C34.328 54.72 37.048 55.84 41.176 55.84C44.728 55.84 46.968 55.2 47.608 52.576H53.624C52.92 58.272 48.504 60.448 41.144 60.448C33.08 60.448 28.312 57.664 28.312 48.992ZM77.4403 50.08V47.744C77.4403 43.52 74.8483 42.08 69.7283 42.08C64.6083 42.08 61.9843 43.52 61.9843 47.744V50.08C61.9843 54.528 64.6083 55.84 69.7283 55.84C74.8483 55.84 77.4403 54.56 77.4403 50.08ZM55.9683 48.832C55.9683 40.256 60.8643 37.472 69.7283 37.472C78.5923 37.472 83.4883 40.256 83.4883 48.832C83.4883 57.632 78.5923 60.448 69.7283 60.448C60.8643 60.448 55.9683 57.632 55.9683 48.832ZM87.0845 37.92H102.061C107.213 37.92 110.125 40.416 110.125 45.024C110.125 48.448 108.589 50.688 105.805 51.712L110.765 60H104.173L99.5965 52.32H93.0365V60H87.0845V37.92ZM104.109 45.408V44.768C104.109 43.264 103.309 42.304 101.165 42.304H93.0365V47.872H101.165C103.277 47.872 104.109 46.912 104.109 45.408ZM114.116 37.92H134.244V42.496H120.068V46.528H130.852V50.912H120.068V55.424H134.34V60H114.116V37.92Z" fill="white"/>
<path d="M5.272 9.92H11.224V18.272H22.968V9.92H28.92V32H22.968V23.104H11.224V32H5.272V9.92ZM40.8515 9.92H49.0435L58.5475 32H52.3715L50.2595 27.072H38.9635L36.8835 32H31.2835L40.8515 9.92ZM44.6275 13.824L40.8195 22.752H48.4355L44.6275 13.824ZM60.9595 9.92H75.9675C80.3835 9.92 82.8155 11.712 82.8155 15.296C82.8155 17.44 81.9195 19.392 79.2315 20.288C82.2715 21.056 83.4875 22.976 83.4875 25.536C83.4875 29.728 81.0555 32 76.0955 32H60.9595V9.92ZM77.4395 25.664V24.832C77.4395 23.392 76.4475 22.528 74.4955 22.528H66.8475V28.096H74.4955C76.3835 28.096 77.4395 27.296 77.4395 25.664ZM76.7675 16.544V15.936C76.7675 14.56 75.8715 13.824 74.1115 13.824H66.8475V18.816H74.1115C75.8395 18.816 76.7675 18.048 76.7675 16.544ZM86.9908 9.92H101.967C107.119 9.92 110.031 12.416 110.031 17.024C110.031 20.448 108.495 22.688 105.711 23.712L110.671 32H104.079L99.5028 24.32H92.9427V32H86.9908V9.92ZM104.015 17.408V16.768C104.015 15.264 103.215 14.304 101.071 14.304H92.9427V19.872H101.071C103.183 19.872 104.015 18.912 104.015 17.408Z" fill="#ED1C24"/>
</svg>
