<svg width="40" height="40" viewBox="0 0 40 40" fill="none" xmlns="http://www.w3.org/2000/svg">
<path d="M40 18C40 16.9391 39.6169 15.9217 38.9349 15.1716C38.253 14.4214 37.3281 14 36.3636 14H24.8727L26.6182 4.86C26.6545 4.66 26.6727 4.44 26.6727 4.22C26.6727 3.4 26.3636 2.64 25.8727 2.1L23.9455 0L11.9818 13.16C11.3091 13.9 10.9091 14.9 10.9091 16V36C10.9091 37.0609 11.2922 38.0783 11.9742 38.8284C12.6561 39.5786 13.581 40 14.5455 40H30.9091C32.4182 40 33.7091 39 34.2545 37.56L39.7455 23.46C39.9091 23 40 22.52 40 22V18ZM0 40H7.27273V16H0V40Z" fill="#ED1C24"/>
</svg>
