<svg width="52" height="51" viewBox="0 0 52 51" fill="none" xmlns="http://www.w3.org/2000/svg">
<circle cx="25.5" cy="25.5" r="12.5" fill="#ED1C24"/>
<path d="M27 45C27 48.3137 29.433 51 27.5 51C25.567 51 24 48.3137 24 45C24 41.6863 25.567 39 27.5 39C29.433 39 27 41.6863 27 45Z" fill="#ED1C24"/>
<path d="M27 45C27 48.3137 29.433 51 27.5 51C25.567 51 24 48.3137 24 45C24 41.6863 25.567 39 27.5 39C29.433 39 27 41.6863 27 45Z" fill="#ED1C24"/>
<path d="M45.0093 25.2649C48.323 25.2752 51.0168 22.8506 51.0108 24.7836C51.0048 26.7165 48.3137 28.2752 45 28.2649C41.6863 28.2546 39.0049 26.6792 39.0109 24.7462C39.0169 22.8132 41.6956 25.2546 45.0093 25.2649Z" fill="#ED1C24"/>
<path d="M45.0093 25.2649C48.323 25.2752 51.0168 22.8506 51.0108 24.7836C51.0048 26.7165 48.3137 28.2752 45 28.2649C41.6863 28.2546 39.0049 26.6792 39.0109 24.7462C39.0169 22.8132 41.6956 25.2546 45.0093 25.2649Z" fill="#ED1C24"/>
<path d="M15.5981 42.6962C13.9412 45.5659 14.7051 49.1088 13.0311 48.1423C11.3571 47.1758 11.3431 44.0659 13 41.1962C14.6569 38.3264 17.3571 36.7835 19.0311 37.75C20.7051 38.7165 17.2549 39.8264 15.5981 42.6962Z" fill="#ED1C24"/>
<path d="M15.5981 42.6962C13.9412 45.5659 14.7051 49.1088 13.0311 48.1423C11.3571 47.1758 11.3431 44.0659 13 41.1962C14.6569 38.3264 17.3571 36.7835 19.0311 37.75C20.7051 38.7165 17.2549 39.8264 15.5981 42.6962Z" fill="#ED1C24"/>
<path d="M7.69615 36.5981C4.8264 38.2549 3.7165 41.7051 2.75 40.0311C1.7835 38.3571 3.3264 35.6569 6.19615 34C9.06591 32.3431 12.1758 32.3571 13.1423 34.0311C14.1088 35.7051 10.5659 34.9412 7.69615 36.5981Z" fill="#ED1C24"/>
<path d="M7.69615 36.5981C4.8264 38.2549 3.7165 41.7051 2.75 40.0311C1.7835 38.3571 3.3264 35.6569 6.19615 34C9.06591 32.3431 12.1758 32.3571 13.1423 34.0311C14.1088 35.7051 10.5659 34.9412 7.69615 36.5981Z" fill="#ED1C24"/>
<path d="M7.81927 15.5981C4.94951 13.9412 1.40662 14.7051 2.37311 13.0311C3.33961 11.3571 6.44951 11.3431 9.31927 13C12.189 14.6569 13.7319 17.3571 12.7654 19.0311C11.7989 20.7051 10.689 17.2549 7.81927 15.5981Z" fill="#ED1C24"/>
<path d="M7.81927 15.5981C4.94951 13.9412 1.40662 14.7051 2.37311 13.0311C3.33961 11.3571 6.44951 11.3431 9.31927 13C12.189 14.6569 13.7319 17.3571 12.7654 19.0311C11.7989 20.7051 10.689 17.2549 7.81927 15.5981Z" fill="#ED1C24"/>
<path d="M15.0793 6.69615C13.4224 3.8264 9.97222 2.7165 11.6462 1.75C13.3203 0.783501 16.0205 2.3264 17.6773 5.19615C19.3342 8.06591 19.3203 11.1758 17.6462 12.1423C15.9722 13.1088 16.7361 9.56591 15.0793 6.69615Z" fill="#ED1C24"/>
<path d="M15.0793 6.69615C13.4224 3.8264 9.97222 2.7165 11.6462 1.75C13.3203 0.783501 16.0205 2.3264 17.6773 5.19615C19.3342 8.06591 19.3203 11.1758 17.6462 12.1423C15.9722 13.1088 16.7361 9.56591 15.0793 6.69615Z" fill="#ED1C24"/>
<path d="M36.0793 7.81926C37.7361 4.9495 36.9722 1.40661 38.6462 2.37311C40.3203 3.3396 40.3342 6.4495 38.6773 9.31926C37.0205 12.189 34.3203 13.7319 32.6462 12.7654C30.9722 11.7989 34.4224 10.689 36.0793 7.81926Z" fill="#ED1C24"/>
<path d="M36.0793 7.81926C37.7361 4.9495 36.9722 1.40661 38.6462 2.37311C40.3203 3.3396 40.3342 6.4495 38.6773 9.31926C37.0205 12.189 34.3203 13.7319 32.6462 12.7654C30.9722 11.7989 34.4224 10.689 36.0793 7.81926Z" fill="#ED1C24"/>
<path d="M43.8193 16.0793C46.689 14.4224 47.7989 10.9722 48.7654 12.6462C49.7319 14.3203 48.189 17.0205 45.3193 18.6773C42.4495 20.3342 39.3396 20.3203 38.3731 18.6462C37.4066 16.9722 40.9495 17.7361 43.8193 16.0793Z" fill="#ED1C24"/>
<path d="M43.8193 16.0793C46.689 14.4224 47.7989 10.9722 48.7654 12.6462C49.7319 14.3203 48.189 17.0205 45.3193 18.6773C42.4495 20.3342 39.3396 20.3203 38.3731 18.6462C37.4066 16.9722 40.9495 17.7361 43.8193 16.0793Z" fill="#ED1C24"/>
<path d="M43.6962 35.0793C46.5659 36.7361 50.1088 35.9722 49.1423 37.6462C48.1758 39.3203 45.0659 39.3342 42.1962 37.6773C39.3264 36.0205 37.7835 33.3203 38.75 31.6462C39.7165 29.9722 40.8264 33.4224 43.6962 35.0793Z" fill="#ED1C24"/>
<path d="M43.6962 35.0793C46.5659 36.7361 50.1088 35.9722 49.1423 37.6462C48.1758 39.3203 45.0659 39.3342 42.1962 37.6773C39.3264 36.0205 37.7835 33.3203 38.75 31.6462C39.7165 29.9722 40.8264 33.4224 43.6962 35.0793Z" fill="#ED1C24"/>
<path d="M36.5981 41.8193C38.2549 44.689 41.7051 45.7989 40.0311 46.7654C38.3571 47.7319 35.6569 46.189 34 43.3193C32.3431 40.4495 32.3571 37.3396 34.0311 36.3731C35.7051 35.4066 34.9412 38.9495 36.5981 41.8193Z" fill="#ED1C24"/>
<path d="M36.5981 41.8193C38.2549 44.689 41.7051 45.7989 40.0311 46.7654C38.3571 47.7319 35.6569 46.189 34 43.3193C32.3431 40.4495 32.3571 37.3396 34.0311 36.3731C35.7051 35.4066 34.9412 38.9495 36.5981 41.8193Z" fill="#ED1C24"/>
<path d="M6.00658 27.0187C2.69287 27.0187 0.00657654 29.4517 0.00657654 27.5187C0.00657654 25.5857 2.69287 24.0187 6.00658 24.0187C9.32029 24.0187 12.0066 25.5857 12.0066 27.5187C12.0066 29.4517 9.32029 27.0187 6.00658 27.0187Z" fill="#ED1C24"/>
<path d="M6.00658 27.0187C2.69287 27.0187 0.00657654 29.4517 0.00657654 27.5187C0.00657654 25.5857 2.69287 24.0187 6.00658 24.0187C9.32029 24.0187 12.0066 25.5857 12.0066 27.5187C12.0066 29.4517 9.32029 27.0187 6.00658 27.0187Z" fill="#ED1C24"/>
<path d="M25.275 6.01012C25.275 2.69641 22.842 0.0101173 24.775 0.0101173C26.708 0.0101173 28.275 2.69641 28.275 6.01012C28.275 9.32383 26.708 12.0101 24.775 12.0101C22.842 12.0101 25.275 9.32383 25.275 6.01012Z" fill="#ED1C24"/>
<path d="M25.275 6.01012C25.275 2.69641 22.842 0.0101173 24.775 0.0101173C26.708 0.0101173 28.275 2.69641 28.275 6.01012C28.275 9.32383 26.708 12.0101 24.775 12.0101C22.842 12.0101 25.275 9.32383 25.275 6.01012Z" fill="#ED1C24"/>
</svg>
