<svg width="45" height="45" viewBox="0 0 45 45" fill="none" xmlns="http://www.w3.org/2000/svg">
<path d="M29.9287 5.21757C28.807 4.46831 27.4694 5.80597 28.2165 6.92773L29.5498 8.92786C30.0912 9.73864 30.3802 10.6917 30.3802 11.6667C30.3802 12.6416 30.0912 13.5947 29.5498 14.4055L28.2165 16.4056C27.4694 17.5274 28.8091 18.865 29.9308 18.1158L31.9286 16.7823C32.7393 16.2409 33.6923 15.9519 34.6672 15.9519C35.6421 15.9519 36.5951 16.2409 37.4058 16.7823L39.4058 18.1158C40.5274 18.865 41.865 17.5274 41.1158 16.4056L39.7825 14.4055C39.2411 13.5947 38.9521 12.6416 38.9521 11.6667C38.9521 10.6917 39.2411 9.73864 39.7825 8.92786L41.1158 6.92773C41.865 5.80597 40.5274 4.46831 39.4036 5.21757L37.4058 6.55099C36.5951 7.09244 35.6421 7.38143 34.6672 7.38143C33.6923 7.38143 32.7393 7.09244 31.9286 6.55099L29.9287 5.21757Z" fill="#ED1C24"/>
<path d="M44.8954 30.8125C45.4054 29.5976 43.9479 28.5626 42.7254 29.1026C40.2814 30.1741 37.6414 30.7257 34.9728 30.7225C24.5102 30.7225 16.0302 22.4126 16.0302 12.1601C16.0291 8.69887 17.0123 5.3087 18.8652 2.38514C19.5752 1.26514 18.7227 -0.284851 17.4227 0.0451476C7.40007 2.60264 0 11.5326 0 22.1551C0 34.7725 10.4376 45 23.3152 45C33.0653 45 41.4154 39.1375 44.8954 30.8125Z" fill="#ED1C24"/>
</svg>
